<mxfile host="app.diagrams.net" modified="2024-07-20T01:46:26.015Z" agent="Mozilla/5.0 (Macintosh; Intel Mac OS X 10.15; rv:128.0) Gecko/20100101 Firefox/128.0" version="24.7.2" etag="ZcnMHt5cT-BL17U5dsg8" type="github">
  <diagram name="Page-1" id="4S7BL0tD39plUBPgxchu">
    <mxGraphModel>
      <root>
        <mxCell id="0" />
        <mxCell id="1" parent="0" />
      </root>
    </mxGraphModel>
  </diagram>
</mxfile>
